<?xml version="1.0" encoding="utf-8"?>
<!-- Generator: Adobe Illustrator 22.0.1, SVG Export Plug-In . SVG Version: 6.00 Build 0)  -->
<svg version="1.1" id="Layer_1" xmlns="http://www.w3.org/2000/svg" xmlns:xlink="http://www.w3.org/1999/xlink" x="0px" y="0px"
	 viewBox="0 0 20 20" style="enable-background:new 0 0 20 20;" xml:space="preserve">
<style type="text/css">
	.st0{fill:#FFFDFD;}
</style>
<title>home-icon</title>
<rect x="8" y="13" class="st0" width="4" height="7"/>
<path class="st0" d="M19.7,9.3l-9-9c-0.4-0.4-1-0.4-1.4,0l-9,9C0,9.7,0.1,10.4,0.5,10.7c0.4,0.3,0.8,0.3,1.2,0L2,10.4V19
	c-0.1,0.5,0.3,0.9,0.8,1c0.1,0,0.1,0,0.2,0h3v-2H4V8.4l6-6l6,6V18h-2v2h3c0.5,0.1,0.9-0.3,1-0.8c0-0.1,0-0.1,0-0.2v-8.6l0.3,0.3
	c0.4,0.3,1.1,0.2,1.4-0.2C20,10.1,20,9.7,19.7,9.3z"/>
</svg>
