<?xml version="1.0" encoding="utf-8"?>
<!-- Generator: Adobe Illustrator 22.0.1, SVG Export Plug-In . SVG Version: 6.00 Build 0)  -->
<svg version="1.1" id="Layer_1" xmlns="http://www.w3.org/2000/svg" xmlns:xlink="http://www.w3.org/1999/xlink" x="0px" y="0px"
	 viewBox="0 0 18 18" style="enable-background:new 0 0 18 18;" xml:space="preserve">
<style type="text/css">
	.st0{fill:#FFFFFF;}
</style>
<title>search-icon</title>
<path class="st0" d="M7,14c-3.9,0-7-3.1-7-7s3.1-7,7-7s7,3.1,7,7S10.9,14,7,14z M7,2C4.2,2,2,4.2,2,7s2.2,5,5,5s5-2.2,5-5S9.8,2,7,2
	z"/>
<path class="st0" d="M16.3,17.7l-3-3c-0.3-0.4-0.2-1.1,0.2-1.4c0.4-0.3,0.8-0.3,1.2,0l3,3c0.3,0.4,0.2,1.1-0.2,1.4
	C17.1,18,16.7,18,16.3,17.7z"/>
</svg>
